<mxfile host="app.diagrams.net" agent="Mozilla/5.0 (Windows NT 10.0; Win64; x64) AppleWebKit/537.36 (KHTML, like Gecko) Chrome/137.0.0.0 Safari/537.36" version="27.1.4">
  <diagram name="PÃ¡gina-1" id="bWaATbokbSQkka-LDmOz">
    <mxGraphModel dx="1489" dy="753" grid="1" gridSize="10" guides="1" tooltips="1" connect="1" arrows="1" fold="1" page="1" pageScale="1" pageWidth="827" pageHeight="1169" math="0" shadow="0">
      <root>
        <mxCell id="0" />
        <mxCell id="1" parent="0" />
        <mxCell id="v6pWzpprPvKAXeVrn0O8-1" value="Player" style="swimlane;childLayout=stackLayout;horizontal=1;startSize=50;horizontalStack=0;rounded=1;fontSize=14;fontStyle=0;strokeWidth=2;resizeParent=0;resizeLast=1;shadow=0;dashed=0;align=center;arcSize=4;whiteSpace=wrap;html=1;" vertex="1" parent="1">
          <mxGeometry x="80" y="30" width="160" height="170" as="geometry" />
        </mxCell>
        <mxCell id="v6pWzpprPvKAXeVrn0O8-2" value="&lt;div&gt;- player_id: Long&lt;/div&gt;- nickname: String&lt;div&gt;- stats: Stat&lt;/div&gt;&lt;div&gt;- inventory: Inventory&lt;/div&gt;&lt;div&gt;- gold: long&lt;/div&gt;&lt;div&gt;&lt;br&gt;&lt;/div&gt;&lt;div&gt;+attack(Player)&lt;/div&gt;" style="align=left;strokeColor=none;fillColor=none;spacingLeft=4;spacingRight=4;fontSize=12;verticalAlign=top;resizable=0;rotatable=0;part=1;html=1;whiteSpace=wrap;" vertex="1" parent="v6pWzpprPvKAXeVrn0O8-1">
          <mxGeometry y="50" width="160" height="120" as="geometry" />
        </mxCell>
        <mxCell id="v6pWzpprPvKAXeVrn0O8-3" value="Item" style="swimlane;childLayout=stackLayout;horizontal=1;startSize=50;horizontalStack=0;rounded=1;fontSize=14;fontStyle=0;strokeWidth=2;resizeParent=0;resizeLast=1;shadow=0;dashed=0;align=center;arcSize=4;whiteSpace=wrap;html=1;" vertex="1" parent="1">
          <mxGeometry x="350" y="250" width="160" height="160" as="geometry" />
        </mxCell>
        <mxCell id="v6pWzpprPvKAXeVrn0O8-4" value="&lt;div&gt;- item_id&lt;/div&gt;- description: String&lt;div&gt;- price: int&lt;/div&gt;&lt;div&gt;- quantity: int&lt;/div&gt;&lt;div&gt;&lt;br&gt;&lt;/div&gt;&lt;div&gt;+ useItem()&lt;/div&gt;" style="align=left;strokeColor=none;fillColor=none;spacingLeft=4;spacingRight=4;fontSize=12;verticalAlign=top;resizable=0;rotatable=0;part=1;html=1;whiteSpace=wrap;" vertex="1" parent="v6pWzpprPvKAXeVrn0O8-3">
          <mxGeometry y="50" width="160" height="110" as="geometry" />
        </mxCell>
        <mxCell id="v6pWzpprPvKAXeVrn0O8-5" value="Market" style="swimlane;childLayout=stackLayout;horizontal=1;startSize=50;horizontalStack=0;rounded=1;fontSize=14;fontStyle=0;strokeWidth=2;resizeParent=0;resizeLast=1;shadow=0;dashed=0;align=center;arcSize=4;whiteSpace=wrap;html=1;" vertex="1" parent="1">
          <mxGeometry x="630" y="30" width="160" height="120" as="geometry" />
        </mxCell>
        <mxCell id="v6pWzpprPvKAXeVrn0O8-6" value="&lt;div&gt;&lt;span style=&quot;background-color: transparent; color: light-dark(rgb(0, 0, 0), rgb(255, 255, 255));&quot;&gt;+ searchItem(Item)&lt;/span&gt;&lt;/div&gt;+ sellItem(Item)&lt;div&gt;+ buyItem(Item)&lt;/div&gt;" style="align=left;strokeColor=none;fillColor=none;spacingLeft=4;spacingRight=4;fontSize=12;verticalAlign=top;resizable=0;rotatable=0;part=1;html=1;whiteSpace=wrap;" vertex="1" parent="v6pWzpprPvKAXeVrn0O8-5">
          <mxGeometry y="50" width="160" height="70" as="geometry" />
        </mxCell>
        <mxCell id="v6pWzpprPvKAXeVrn0O8-9" value="Inventory" style="swimlane;childLayout=stackLayout;horizontal=1;startSize=50;horizontalStack=0;rounded=1;fontSize=14;fontStyle=0;strokeWidth=2;resizeParent=0;resizeLast=1;shadow=0;dashed=0;align=center;arcSize=4;whiteSpace=wrap;html=1;" vertex="1" parent="1">
          <mxGeometry x="350" y="30" width="160" height="140" as="geometry" />
        </mxCell>
        <mxCell id="v6pWzpprPvKAXeVrn0O8-10" value="&lt;div&gt;- inventory_id: Long&lt;/div&gt;- space: int&lt;div&gt;- items: List&amp;lt;Item&amp;gt;&lt;/div&gt;&lt;div&gt;&lt;br&gt;&lt;/div&gt;&lt;div&gt;+ order()&lt;/div&gt;" style="align=left;strokeColor=none;fillColor=none;spacingLeft=4;spacingRight=4;fontSize=12;verticalAlign=top;resizable=0;rotatable=0;part=1;html=1;whiteSpace=wrap;" vertex="1" parent="v6pWzpprPvKAXeVrn0O8-9">
          <mxGeometry y="50" width="160" height="90" as="geometry" />
        </mxCell>
        <mxCell id="v6pWzpprPvKAXeVrn0O8-11" value="Equipable" style="swimlane;childLayout=stackLayout;horizontal=1;startSize=50;horizontalStack=0;rounded=1;fontSize=14;fontStyle=0;strokeWidth=2;resizeParent=0;resizeLast=1;shadow=0;dashed=0;align=center;arcSize=4;whiteSpace=wrap;html=1;" vertex="1" parent="1">
          <mxGeometry x="600" y="230" width="160" height="140" as="geometry" />
        </mxCell>
        <mxCell id="v6pWzpprPvKAXeVrn0O8-12" value="HELMET&lt;div&gt;ARMOR&lt;/div&gt;&lt;div&gt;BOOTS&lt;/div&gt;&lt;div&gt;WEAPON&lt;/div&gt;&lt;div&gt;SHIELD&lt;/div&gt;" style="align=left;strokeColor=none;fillColor=none;spacingLeft=4;spacingRight=4;fontSize=12;verticalAlign=top;resizable=0;rotatable=0;part=1;html=1;whiteSpace=wrap;" vertex="1" parent="v6pWzpprPvKAXeVrn0O8-11">
          <mxGeometry y="50" width="160" height="90" as="geometry" />
        </mxCell>
        <mxCell id="v6pWzpprPvKAXeVrn0O8-13" value="Resource" style="swimlane;childLayout=stackLayout;horizontal=1;startSize=50;horizontalStack=0;rounded=1;fontSize=14;fontStyle=0;strokeWidth=2;resizeParent=0;resizeLast=1;shadow=0;dashed=0;align=center;arcSize=4;whiteSpace=wrap;html=1;" vertex="1" parent="1">
          <mxGeometry x="210" y="450" width="190" height="120" as="geometry" />
        </mxCell>
        <mxCell id="v6pWzpprPvKAXeVrn0O8-14" value="- recipe: List&amp;lt;Item&amp;gt;&lt;div&gt;&lt;br&gt;&lt;/div&gt;&lt;div&gt;+ combineResource(List&amp;lt;Item&amp;gt;)&lt;/div&gt;" style="align=left;strokeColor=none;fillColor=none;spacingLeft=4;spacingRight=4;fontSize=12;verticalAlign=top;resizable=0;rotatable=0;part=1;html=1;whiteSpace=wrap;" vertex="1" parent="v6pWzpprPvKAXeVrn0O8-13">
          <mxGeometry y="50" width="190" height="70" as="geometry" />
        </mxCell>
        <mxCell id="v6pWzpprPvKAXeVrn0O8-15" value="Stat" style="swimlane;childLayout=stackLayout;horizontal=1;startSize=50;horizontalStack=0;rounded=1;fontSize=14;fontStyle=0;strokeWidth=2;resizeParent=0;resizeLast=1;shadow=0;dashed=0;align=center;arcSize=4;whiteSpace=wrap;html=1;" vertex="1" parent="1">
          <mxGeometry x="70" y="280" width="160" height="120" as="geometry" />
        </mxCell>
        <mxCell id="v6pWzpprPvKAXeVrn0O8-16" value="- health: int&lt;div&gt;- attack: int&lt;/div&gt;&lt;div&gt;- defense: int&lt;/div&gt;&lt;div&gt;- speed: int&lt;/div&gt;" style="align=left;strokeColor=none;fillColor=none;spacingLeft=4;spacingRight=4;fontSize=12;verticalAlign=top;resizable=0;rotatable=0;part=1;html=1;whiteSpace=wrap;" vertex="1" parent="v6pWzpprPvKAXeVrn0O8-15">
          <mxGeometry y="50" width="160" height="70" as="geometry" />
        </mxCell>
        <mxCell id="v6pWzpprPvKAXeVrn0O8-17" value="Equipment" style="swimlane;childLayout=stackLayout;horizontal=1;startSize=50;horizontalStack=0;rounded=1;fontSize=14;fontStyle=0;strokeWidth=2;resizeParent=0;resizeLast=1;shadow=0;dashed=0;align=center;arcSize=4;whiteSpace=wrap;html=1;" vertex="1" parent="1">
          <mxGeometry x="450" y="450" width="160" height="120" as="geometry" />
        </mxCell>
        <mxCell id="v6pWzpprPvKAXeVrn0O8-18" value="- type: Equipable&lt;div&gt;- stats: Stat&lt;br&gt;&lt;div&gt;&lt;br&gt;&lt;/div&gt;&lt;div&gt;+ equipItem(Player)&lt;/div&gt;&lt;/div&gt;" style="align=left;strokeColor=none;fillColor=none;spacingLeft=4;spacingRight=4;fontSize=12;verticalAlign=top;resizable=0;rotatable=0;part=1;html=1;whiteSpace=wrap;" vertex="1" parent="v6pWzpprPvKAXeVrn0O8-17">
          <mxGeometry y="50" width="160" height="70" as="geometry" />
        </mxCell>
        <mxCell id="v6pWzpprPvKAXeVrn0O8-23" style="edgeStyle=orthogonalEdgeStyle;rounded=0;orthogonalLoop=1;jettySize=auto;html=1;exitX=1;exitY=0.25;exitDx=0;exitDy=0;entryX=0;entryY=0.25;entryDx=0;entryDy=0;" edge="1" parent="1" source="v6pWzpprPvKAXeVrn0O8-10" target="v6pWzpprPvKAXeVrn0O8-5">
          <mxGeometry relative="1" as="geometry" />
        </mxCell>
        <mxCell id="v6pWzpprPvKAXeVrn0O8-26" style="edgeStyle=orthogonalEdgeStyle;rounded=0;orthogonalLoop=1;jettySize=auto;html=1;exitX=0.5;exitY=1;exitDx=0;exitDy=0;entryX=0.5;entryY=0;entryDx=0;entryDy=0;" edge="1" parent="1" source="v6pWzpprPvKAXeVrn0O8-10" target="v6pWzpprPvKAXeVrn0O8-3">
          <mxGeometry relative="1" as="geometry" />
        </mxCell>
        <mxCell id="v6pWzpprPvKAXeVrn0O8-27" style="edgeStyle=orthogonalEdgeStyle;rounded=0;orthogonalLoop=1;jettySize=auto;html=1;exitX=0;exitY=0.5;exitDx=0;exitDy=0;entryX=0.39;entryY=-0.004;entryDx=0;entryDy=0;entryPerimeter=0;" edge="1" parent="1" source="v6pWzpprPvKAXeVrn0O8-4" target="v6pWzpprPvKAXeVrn0O8-13">
          <mxGeometry relative="1" as="geometry" />
        </mxCell>
        <mxCell id="v6pWzpprPvKAXeVrn0O8-28" style="edgeStyle=orthogonalEdgeStyle;rounded=0;orthogonalLoop=1;jettySize=auto;html=1;exitX=1;exitY=0.5;exitDx=0;exitDy=0;entryX=0.5;entryY=0;entryDx=0;entryDy=0;" edge="1" parent="1" source="v6pWzpprPvKAXeVrn0O8-4" target="v6pWzpprPvKAXeVrn0O8-17">
          <mxGeometry relative="1" as="geometry" />
        </mxCell>
        <mxCell id="v6pWzpprPvKAXeVrn0O8-30" style="edgeStyle=orthogonalEdgeStyle;rounded=0;orthogonalLoop=1;jettySize=auto;html=1;exitX=1;exitY=0.25;exitDx=0;exitDy=0;entryX=0;entryY=0.25;entryDx=0;entryDy=0;" edge="1" parent="1" source="v6pWzpprPvKAXeVrn0O8-2" target="v6pWzpprPvKAXeVrn0O8-9">
          <mxGeometry relative="1" as="geometry" />
        </mxCell>
        <mxCell id="v6pWzpprPvKAXeVrn0O8-31" style="edgeStyle=orthogonalEdgeStyle;rounded=0;orthogonalLoop=1;jettySize=auto;html=1;exitX=0.5;exitY=1;exitDx=0;exitDy=0;entryX=0.563;entryY=-0.035;entryDx=0;entryDy=0;entryPerimeter=0;" edge="1" parent="1" source="v6pWzpprPvKAXeVrn0O8-2" target="v6pWzpprPvKAXeVrn0O8-15">
          <mxGeometry relative="1" as="geometry" />
        </mxCell>
      </root>
    </mxGraphModel>
  </diagram>
</mxfile>
